<mxfile host="65bd71144e" modified="2020-11-09T04:52:08.227Z" agent="5.0 (Windows NT 10.0; Win64; x64) AppleWebKit/537.36 (KHTML, like Gecko) Code/1.51.0 Chrome/83.0.4103.122 Electron/9.3.3 Safari/537.36" version="13.6.5" etag="I_d-uyxZglNPTyfiM8Ks">
    <diagram id="ZKVBQ6ebWP1mwrjXD9sY" name="第 1 页">
        <mxGraphModel dx="402" dy="457" grid="1" gridSize="12" guides="1" tooltips="1" connect="1" arrows="1" fold="1" page="1" pageScale="1" pageWidth="1200" pageHeight="1600" background="none" math="0" shadow="0">
            <root>
                <mxCell id="0"/>
                <mxCell id="1" parent="0"/>
                <mxCell id="19" value="&lt;font style=&quot;font-size: 16px&quot;&gt;&amp;amp;&lt;/font&gt;" style="rounded=0;whiteSpace=wrap;html=1;shadow=0;fillColor=none;strokeWidth=2;verticalAlign=top;" vertex="1" parent="1">
                    <mxGeometry x="528" y="288" width="48" height="72" as="geometry"/>
                </mxCell>
                <mxCell id="20" value="" style="endArrow=none;html=1;entryX=0;entryY=0.25;entryDx=0;entryDy=0;strokeWidth=2;" edge="1" parent="1" target="19">
                    <mxGeometry width="50" height="50" relative="1" as="geometry">
                        <mxPoint x="504" y="306" as="sourcePoint"/>
                        <mxPoint x="542" y="287" as="targetPoint"/>
                    </mxGeometry>
                </mxCell>
                <mxCell id="21" value="" style="endArrow=none;html=1;entryX=0;entryY=0.75;entryDx=0;entryDy=0;strokeWidth=2;" edge="1" parent="1" target="19">
                    <mxGeometry width="50" height="50" relative="1" as="geometry">
                        <mxPoint x="504" y="342" as="sourcePoint"/>
                        <mxPoint x="552" y="324" as="targetPoint"/>
                    </mxGeometry>
                </mxCell>
            </root>
        </mxGraphModel>
    </diagram>
</mxfile>